<svg width="16" height="16" viewBox="0 0 16 16" fill="none" xmlns="http://www.w3.org/2000/svg">
  <path fill-rule="evenodd" clip-rule="evenodd" d="M11.8497 3.03086L13.6676 1.21301C13.9516 0.928996 14.4121 0.928996 14.6961 1.21301C14.9801 1.49703 14.9801 1.95751 14.6961 2.24153L2.33244 14.6052C2.04842 14.8892 1.58794 14.8892 1.30392 14.6052C1.0199 14.3212 1.0199 13.8607 1.30392 13.5766L2.86412 12.0164C1.12059 10.7797 0 9.12027 0 7.90909C0 5.72727 3.63636 2.09091 8 2.09091C9.38803 2.09091 10.7025 2.45884 11.8497 3.03086ZM4.96611 9.91446L6.01862 8.86195C5.89222 8.54216 5.81818 8.20883 5.81818 7.90909C5.81818 6.70411 6.79502 5.72727 8 5.72727C8.30074 5.72727 8.62484 5.81027 8.93254 5.94803L10.0054 4.8752C9.43051 4.49446 8.74115 4.27273 8 4.27273C5.99169 4.27273 4.36364 5.90078 4.36364 7.90909C4.36364 8.65024 4.58537 9.3396 4.96611 9.91446ZM14.1534 4.63453C15.3031 5.72006 16 6.95395 16 7.90909C16 10.0909 12.3636 13.7273 8 13.7273C7.1172 13.7273 6.26417 13.5784 5.465 13.3229L7.3082 11.4797C7.53217 11.5229 7.76344 11.5455 8 11.5455C10.0083 11.5455 11.6364 9.9174 11.6364 7.90909C11.6364 7.67254 11.6138 7.44126 11.5706 7.21729L14.1534 4.63453Z" fill="currentColor"/>
</svg>
