<svg width="16" height="16" viewBox="0 0 16 16" fill="none" xmlns="http://www.w3.org/2000/svg">
  <path fill-rule="evenodd" clip-rule="evenodd" d="M8.64248 5.7325C8.26365 5.90354 8 6.28462 8 6.72727C8 7.32977 8.48842 7.81818 9.09091 7.81818C9.53357 7.81818 9.91465 7.55453 10.0857 7.1757C10.1482 7.37882 10.1818 7.59457 10.1818 7.81818C10.1818 9.02317 9.20498 10 8 10C6.79502 10 5.81818 9.02317 5.81818 7.81818C5.81818 6.6132 6.79502 5.63636 8 5.63636C8.22361 5.63636 8.43937 5.67 8.64248 5.7325ZM8 2C12.3636 2 16 5.63636 16 7.81818C16 10 12.3636 13.6364 8 13.6364C3.63636 13.6364 0 10 0 7.81818C0 5.63636 3.63636 2 8 2ZM8 11.4545C10.0083 11.4545 11.6364 9.82649 11.6364 7.81818C11.6364 5.80987 10.0083 4.18182 8 4.18182C5.99169 4.18182 4.36364 5.80987 4.36364 7.81818C4.36364 9.82649 5.99169 11.4545 8 11.4545Z" fill="currentColor"/>
</svg>
