<svg width="16" height="16" viewBox="0 0 16 16" fill="none" xmlns="http://www.w3.org/2000/svg">
  <path fill-rule="evenodd" clip-rule="evenodd" d="M8.72353 15.9216H7.31405C3.31908 15.9216 0.0805664 12.4925 0.0805664 8.26257V7.89018C0.0805664 3.66022 3.31908 0.231201 7.31405 0.231201H8.72353C12.7185 0.231201 15.957 3.66022 15.957 7.89018V8.26257C15.957 12.4925 12.7185 15.9216 8.72353 15.9216Z" fill="url(#paint0_linear_1612_6789)"/>
  <path fill-rule="evenodd" clip-rule="evenodd" d="M12.6351 1.4491C14.0194 2.84423 14.8837 4.81286 14.8837 6.99639V7.36847C14.8837 11.5984 11.6452 15.0274 7.65023 15.0274H6.24075C4.79927 15.0274 3.45705 14.5791 2.32935 13.8096C3.62683 15.1172 5.3812 15.9216 7.31394 15.9216H8.72342C12.7184 15.9216 15.9569 12.4925 15.9569 8.26259V7.89019C15.9569 5.18682 14.6328 2.81223 12.6351 1.4491Z" fill="#F4679B"/>
  <path fill-rule="evenodd" clip-rule="evenodd" d="M8.24694 10.1104C8.28687 10.1104 8.32637 10.1109 8.3663 10.1127C9.0961 10.1419 9.73838 10.4401 10.1823 10.8791C10.3896 11.0833 10.7137 11.0712 10.907 10.8521C11.0998 10.6326 11.0884 10.4894 10.8815 10.2848C10.2486 9.66096 9.37518 9.26785 8.40581 9.22782C8.35271 9.22557 8.29961 9.22467 8.24694 9.22467C7.22744 9.22512 6.29587 9.62362 5.63575 10.2893C5.431 10.4962 5.42335 10.6398 5.61875 10.8566C5.81416 11.0734 6.1387 11.0815 6.34345 10.8746C6.79925 10.4131 7.48104 10.1095 8.24694 10.1104Z" fill="#3E3826"/>
  <path fill-rule="evenodd" clip-rule="evenodd" d="M2.863 5.68855C2.76168 5.62223 2.62793 5.69791 2.62793 5.82431V5.82704C2.62793 6.5831 3.20639 7.19598 3.92044 7.19598C4.6345 7.19598 5.21333 6.5831 5.21333 5.82704V5.82431C5.21296 5.69791 5.07921 5.62223 4.97789 5.68855C4.67024 5.88985 4.30842 6.0065 3.92044 6.0065C3.53247 6.0065 3.17065 5.88985 2.863 5.68855Z" fill="#3E3826"/>
  <path fill-rule="evenodd" clip-rule="evenodd" d="M11.2662 5.68855C11.1649 5.62223 11.0311 5.69791 11.0308 5.82431V5.82704C11.0308 6.5831 11.6096 7.19598 12.3236 7.19598C13.0373 7.19598 13.6162 6.5831 13.6162 5.82704V5.82431C13.6158 5.69791 13.4824 5.62223 13.3807 5.68855C13.0734 5.88985 12.7116 6.0065 12.3236 6.0065C11.9357 6.0065 11.5735 5.88985 11.2662 5.68855Z" fill="#3E3826"/>
  <path fill-rule="evenodd" clip-rule="evenodd" d="M11.127 3.28948C11.1364 3.30572 11.3061 3.60038 11.6451 3.92553C11.9835 4.24969 12.4972 4.60765 13.1852 4.72035C13.3333 4.74454 13.4717 4.63715 13.4945 4.48071C13.5174 4.32393 13.4159 4.17743 13.2682 4.15324C12.7144 4.06275 12.294 3.77273 12.0088 3.49995C11.8667 3.36372 11.7597 3.2328 11.6895 3.13768C11.6542 3.09028 11.6285 3.05183 11.6119 3.02631L11.5941 2.9978L11.5906 2.99184C11.513 2.85628 11.3461 2.81319 11.2181 2.89539C11.0901 2.97759 11.0494 3.15425 11.127 3.28948Z" fill="#8F384C"/>
  <path fill-rule="evenodd" clip-rule="evenodd" d="M4.57587 2.99184C4.56679 3.00808 4.41434 3.26064 4.13042 3.52547C3.84587 3.79096 3.43485 4.06573 2.89831 4.15324C2.75024 4.17743 2.64882 4.32393 2.67167 4.48071C2.69452 4.63748 2.8332 4.74454 2.98095 4.72035C3.669 4.60765 4.18301 4.24969 4.52109 3.92553C4.86042 3.60038 5.02977 3.30572 5.03947 3.28948C5.11711 3.15425 5.0761 2.97759 4.94807 2.89539C4.82035 2.81319 4.6535 2.85628 4.57587 2.99184Z" fill="#8F384C"/>
  <defs>
    <linearGradient id="paint0_linear_1612_6789" x1="0.0805664" y1="0.231201" x2="0.0805664" y2="15.9216" gradientUnits="userSpaceOnUse">
      <stop stop-color="#F692B7"/>
      <stop offset="1" stop-color="#F57FAA"/>
    </linearGradient>
  </defs>
</svg>
