<svg width="16" height="16" viewBox="0 0 16 16" fill="none" xmlns="http://www.w3.org/2000/svg">
  <path fill-rule="evenodd" clip-rule="evenodd" d="M8.64296 15.6904H7.23348C3.23852 15.6904 0 12.2613 0 8.03106V7.65898C0 3.42902 3.23852 0 7.23348 0H8.64296C12.6379 0 15.8764 3.42902 15.8764 7.65898V8.03106C15.8764 12.2613 12.6379 15.6904 8.64296 15.6904Z" fill="url(#paint0_linear_1612_6799)"/>
  <path fill-rule="evenodd" clip-rule="evenodd" d="M12.6761 1.25488C14.0604 2.65002 14.9247 4.61865 14.9247 6.80186V7.17426C14.9247 11.4042 11.6862 14.8332 7.69125 14.8332H6.28177C4.84029 14.8332 3.49836 14.3849 2.37036 13.6154C3.66784 14.923 5.42221 15.7274 7.35495 15.7274H8.76444C12.7594 15.7274 15.9979 12.2983 15.9979 8.06806V7.69598C15.9979 4.99261 14.6738 2.61802 12.6761 1.25488Z" fill="#92BAE3"/>
  <path fill-rule="evenodd" clip-rule="evenodd" d="M4.2364 8.97161H11.4183C11.6308 8.97161 11.8032 8.78933 11.8032 8.56408C11.8032 8.33913 11.6308 8.15686 11.4183 8.15686H4.2364C4.02395 8.15686 3.85181 8.33913 3.85181 8.56408C3.85181 8.78933 4.02395 8.97161 4.2364 8.97161Z" fill="#3E3826"/>
  <path fill-rule="evenodd" clip-rule="evenodd" d="M12.0317 4.95812C12.0317 5.44376 11.6598 5.8378 11.2012 5.8378C10.7422 5.8378 10.3704 5.44376 10.3704 4.95812C10.3704 4.47247 10.7422 4.07843 11.2012 4.07843C11.6598 4.07843 12.0317 4.47247 12.0317 4.95812Z" fill="#3E3826"/>
  <path fill-rule="evenodd" clip-rule="evenodd" d="M5.51314 4.95812C5.51314 5.44376 5.14129 5.8378 4.68233 5.8378C4.22366 5.8378 3.85181 5.44376 3.85181 4.95812C3.85181 4.47247 4.22366 4.07843 4.68233 4.07843C5.14129 4.07843 5.51314 4.47247 5.51314 4.95812Z" fill="#3E3826"/>
  <defs>
    <linearGradient id="paint0_linear_1612_6799" x1="0" y1="0" x2="0" y2="15.6904" gradientUnits="userSpaceOnUse">
      <stop stop-color="#B6D1EC"/>
      <stop offset="1" stop-color="#AAC9E9"/>
    </linearGradient>
  </defs>
</svg>
