<svg width="16" height="16" viewBox="0 0 16 16" fill="none" xmlns="http://www.w3.org/2000/svg">
  <path fill-rule="evenodd" clip-rule="evenodd" d="M8.64296 15.8183H7.23348C3.23852 15.8183 0 12.3893 0 8.15936V7.78728C0 3.55732 3.23852 0.127991 7.23348 0.127991H8.64296C12.6379 0.127991 15.8764 3.55732 15.8764 7.78728V8.15936C15.8764 12.3893 12.6379 15.8183 8.64296 15.8183Z" fill="url(#paint0_linear_1612_6751)"/>
  <path fill-rule="evenodd" clip-rule="evenodd" d="M12.5546 1.34619C13.9389 2.74133 14.8031 4.70964 14.8031 6.89317V7.26525C14.8031 11.4952 11.5646 14.9245 7.56967 14.9245H6.16019C4.71871 14.9245 3.37678 14.4762 2.24878 13.7063C3.54626 15.0143 5.30063 15.8183 7.23337 15.8183H8.64285C12.6378 15.8183 15.8763 12.3893 15.8763 8.15937V7.78729C15.8763 5.0836 14.5522 2.70901 12.5546 1.34619Z" fill="#29C752"/>
  <path fill-rule="evenodd" clip-rule="evenodd" d="M13.1401 6.89943C13.2216 6.95276 13.3288 6.8919 13.3291 6.79025V6.78774C13.3291 6.18006 12.8636 5.68719 12.2897 5.68719C11.7155 5.68719 11.25 6.18006 11.25 6.78774V6.79025C11.2503 6.8919 11.3579 6.95245 11.4393 6.89912C11.6867 6.73755 11.9777 6.64374 12.2897 6.64374C12.6017 6.64374 12.8927 6.73755 13.1401 6.89943Z" fill="#3E3826"/>
  <path fill-rule="evenodd" clip-rule="evenodd" d="M4.43714 6.89943C4.51862 6.95276 4.62618 6.8919 4.62647 6.79025V6.78774C4.62647 6.18006 4.16099 5.68719 3.58677 5.68719C3.01284 5.68719 2.54736 6.18006 2.54736 6.78774V6.79025C2.54766 6.8919 2.65492 6.95245 2.7367 6.89912C2.98381 6.73755 3.27477 6.64374 3.58677 6.64374C3.89877 6.64374 4.19003 6.73755 4.43714 6.89943Z" fill="#3E3826"/>
  <path fill-rule="evenodd" clip-rule="evenodd" d="M3.91478 9.23545C3.66323 9.32549 3.52011 9.61537 3.61789 9.87702C4.20397 11.4472 5.92189 12.7702 7.93848 12.7702C9.95478 12.7702 11.6727 11.4472 12.2591 9.87702C12.3566 9.61537 12.2134 9.32549 11.9619 9.23545C9.53167 8.36455 6.345 8.36455 3.91478 9.23545Z" fill="#3E3826"/>
  <path fill-rule="evenodd" clip-rule="evenodd" d="M5.11841 8.86557C5.96611 9.12869 6.92404 9.28468 7.93826 9.28468C8.95219 9.28468 9.91011 9.12869 10.7578 8.86557C8.95782 8.35772 6.91841 8.35772 5.11841 8.86557Z" fill="#FFFFFE"/>
  <path fill-rule="evenodd" clip-rule="evenodd" d="M5.77393 12.2328C6.41807 12.5688 7.15496 12.7702 7.93837 12.7702C8.72148 12.7702 9.45837 12.5688 10.1025 12.2328C9.50637 11.7572 8.75585 11.4711 7.93837 11.4711C7.12059 11.4711 6.37037 11.7572 5.77393 12.2328Z" fill="#D4522B"/>
  <defs>
    <linearGradient id="paint0_linear_1612_6751" x1="0.121704" y1="0.368547" x2="0.121704" y2="15.8183" gradientUnits="userSpaceOnUse">
      <stop stop-color="#49DA6F"/>
      <stop offset="1" stop-color="#3CD765"/>
    </linearGradient>
  </defs>
</svg>
